<svg id="Grupo_2318" data-name="Grupo 2318" xmlns="http://www.w3.org/2000/svg" width="16.181" height="16.818" viewBox="0 0 16.181 16.818">
  <path id="Trazado_1538" data-name="Trazado 1538" d="M969.192,872.026a1.513,1.513,0,0,1,.524-1.3,1.442,1.442,0,0,1,.98-.345,1.5,1.5,0,0,1,1.448,1.634h1.138a1.494,1.494,0,0,1,.645-1.38,1.408,1.408,0,0,1,.906-.251,1.433,1.433,0,0,1,1.04.515,1.5,1.5,0,0,1,.345,1.117h1.148a1.517,1.517,0,0,1,.625-1.364,1.388,1.388,0,0,1,.916-.268c.846.053,1.294.57,1.42,1.642.251,0,.505-.006.759,0a1.728,1.728,0,0,1,1.359.661,1.688,1.688,0,0,1,.38,1.091q0,5.79,0,11.58a1.774,1.774,0,0,1-1.844,1.838q-3.223,0-6.446,0-3.024,0-6.048,0a1.757,1.757,0,0,1-1.75-1.23,2.034,2.034,0,0,1-.087-.594q-.007-5.745,0-11.492a1.763,1.763,0,0,1,1.4-1.809,2.572,2.572,0,0,1,.468-.045C968.739,872.02,968.958,872.026,969.192,872.026Zm-1.593,4.026v.132q0,4.61,0,9.22a.955.955,0,0,0,.013.176.875.875,0,0,0,.924.72h12.54a.864.864,0,0,0,.846-.723,2,2,0,0,0,0-.336q0-4.492,0-8.985v-.205Zm6.639-3.55c0,.211,0,.423,0,.634a.53.53,0,1,0,1.061,0q.005-.627,0-1.254a.53.53,0,1,0-1.061,0C974.237,872.088,974.239,872.295,974.239,872.5Zm4.072-.007c0,.216,0,.432,0,.648a.541.541,0,0,0,.539.532.529.529,0,0,0,.522-.531q.007-.633,0-1.267a.534.534,0,0,0-.531-.537.525.525,0,0,0-.529.535C978.308,872.082,978.311,872.288,978.311,872.494Zm-7.1.018c0-.206,0-.412,0-.618a.536.536,0,0,0-.513-.553.522.522,0,0,0-.545.533q-.013.633,0,1.266a.539.539,0,0,0,.537.534.529.529,0,0,0,.521-.544C971.212,872.924,971.208,872.718,971.209,872.512Z" transform="translate(-966.645 -870.381)" fill="#0071be"/>
  <path id="Trazado_1539" data-name="Trazado 1539" d="M983.513,890.4c0-.3,0-.6,0-.9a.453.453,0,0,1,.48-.481q.892-.005,1.784,0a.459.459,0,0,1,.478.487q0,.892,0,1.784a.463.463,0,0,1-.5.484q-.877,0-1.755,0a.441.441,0,0,1-.492-.491Zm.927-.454v.88h.869v-.88Z" transform="translate(-976.75 -881.545)" fill="#0071be"/>
  <path id="Trazado_1540" data-name="Trazado 1540" d="M994.812,891.776c-.29,0-.58,0-.87,0a.459.459,0,0,1-.494-.5q0-.885,0-1.77a.452.452,0,0,1,.475-.487q.892-.006,1.785,0a.46.46,0,0,1,.483.484q0,.892,0,1.785a.464.464,0,0,1-.494.488C995.4,891.777,995.107,891.776,994.812,891.776Zm-.441-.95h.872v-.875h-.872Z" transform="translate(-982.701 -881.545)" fill="#0071be"/>
  <path id="Trazado_1541" data-name="Trazado 1541" d="M976.266,890.4c0,.29,0,.58,0,.87a.461.461,0,0,1-.5.508q-.871,0-1.741,0a.467.467,0,0,1-.5-.508q0-.87,0-1.741a.467.467,0,0,1,.5-.508q.87,0,1.741,0a.461.461,0,0,1,.5.508C976.267,889.818,976.266,890.107,976.266,890.4Zm-1.814.429h.866v-.879h-.866Z" transform="translate(-970.764 -881.545)" fill="#0071be"/>
  <path id="Trazado_1542" data-name="Trazado 1542" d="M983.514,900.215c0-.295,0-.59,0-.885a.46.46,0,0,1,.5-.507q.87,0,1.74,0a.467.467,0,0,1,.5.507q0,.87,0,1.74a.466.466,0,0,1-.5.51q-.877,0-1.755,0a.44.44,0,0,1-.488-.495Zm.924.418h.872v-.883h-.872Z" transform="translate(-976.75 -887.419)" fill="#0071be"/>
  <path id="Trazado_1543" data-name="Trazado 1543" d="M993.448,900.192c0-.3,0-.59,0-.885a.454.454,0,0,1,.478-.484q.892,0,1.785,0a.458.458,0,0,1,.479.471q.007.908,0,1.815a.455.455,0,0,1-.467.468q-.907.007-1.814,0a.45.45,0,0,1-.461-.471C993.446,900.8,993.449,900.5,993.448,900.192Zm.925.442h.867v-.885h-.867Z" transform="translate(-982.701 -887.418)" fill="#0071be"/>
  <path id="Trazado_1544" data-name="Trazado 1544" d="M974.9,898.823c.29,0,.581,0,.87,0a.457.457,0,0,1,.49.488q0,.892,0,1.785a.454.454,0,0,1-.479.483q-.893.005-1.785,0a.459.459,0,0,1-.478-.487q0-.893,0-1.785a.46.46,0,0,1,.482-.483C974.3,898.821,974.6,898.823,974.9,898.823Zm-.462.926c0,.28,0,.545,0,.81,0,.03.045.083.069.083.264.006.528,0,.8,0v-.9Z" transform="translate(-970.764 -887.419)" fill="#0071be"/>
</svg>
