<svg xmlns="http://www.w3.org/2000/svg" width="18.594" height="24.5" viewBox="0 0 18.594 24.5">
  <path id="Trazado_1678" data-name="Trazado 1678" d="M16.958,2a6.23,6.23,0,0,1,4.535,1.852,6.086,6.086,0,0,1,1.881,4.506,6.466,6.466,0,0,1-2.508,5.133h-.992V12.033a4.506,4.506,0,0,0,1.3-1.633,4.742,4.742,0,0,0,.452-2.042,4.4,4.4,0,0,0-1.371-3.267,4.719,4.719,0,0,0-6.592,0,4.4,4.4,0,0,0-1.371,3.267,4.742,4.742,0,0,0,.452,2.042,4.506,4.506,0,0,0,1.3,1.633v2.1a6.344,6.344,0,0,1-2.567-2.392,6.423,6.423,0,0,1-.933-3.383,6.086,6.086,0,0,1,1.881-4.506A6.23,6.23,0,0,1,16.958,2ZM15.85,26.5a2.318,2.318,0,0,1-.933-.19,2.424,2.424,0,0,1-.758-.51L8.15,19.792,9.783,18.1a2.917,2.917,0,0,1,.919-.627,1.6,1.6,0,0,1,1.065-.073l2.275.525V8.417a2.929,2.929,0,0,1,4.987-2.071,2.816,2.816,0,0,1,.846,2.071v5.017h.758a.575.575,0,0,1,.263.058c.078.039.165.078.263.117l4.317,2.1a2.066,2.066,0,0,1,1.035,1.035,2.344,2.344,0,0,1,.19,1.473l-1.05,6.358a2.2,2.2,0,0,1-.817,1.385,2.355,2.355,0,0,1-1.517.54Zm-.233-1.75h8.2l1.254-7.263-5.338-2.654h-1.6V8.417a1.167,1.167,0,1,0-2.333,0V20.054L11.3,19.092l-.671.671Zm8.2,0h0Z" transform="translate(-8.15 -2)" fill="#7a3caa"/>
</svg>
