<svg xmlns="http://www.w3.org/2000/svg" width="20" height="20" viewBox="0 0 20 20">
  <path id="Trazado_1612" data-name="Trazado 1612" d="M15.167,16.985V5.8h1.667V16.985ZM16,25.8a9.674,9.674,0,0,1-3.875-.785,10.107,10.107,0,0,1-5.333-5.289A9.458,9.458,0,0,1,6,15.883a9.186,9.186,0,0,1,.944-4.118,10.77,10.77,0,0,1,2.667-3.4l1.167,1.157a8.43,8.43,0,0,0-2.292,2.824,7.808,7.808,0,0,0-.819,3.54A7.936,7.936,0,0,0,10.1,21.737a8.07,8.07,0,0,0,5.9,2.41,8.07,8.07,0,0,0,5.9-2.41,7.936,7.936,0,0,0,2.431-5.854,7.981,7.981,0,0,0-.819-3.567,8.09,8.09,0,0,0-2.236-2.8l1.194-1.157a9.927,9.927,0,0,1,2.6,3.361A9.559,9.559,0,0,1,26,15.883a9.458,9.458,0,0,1-.792,3.843,10.243,10.243,0,0,1-2.139,3.154A10.058,10.058,0,0,1,19.9,25.015,9.743,9.743,0,0,1,16,25.8Z" transform="translate(-6 -5.8)" fill="#757575"/>
</svg>
