<svg xmlns="http://www.w3.org/2000/svg" width="22" height="22" viewBox="0 0 22 22">
  <path id="Trazado_1622" data-name="Trazado 1622" d="M14.257,20.5h1.65V15.935H20.5v-1.65H15.908V9.5h-1.65v4.785H9.5v1.65h4.757ZM15,26a11.154,11.154,0,0,1-4.345-.839,10.647,10.647,0,0,1-5.816-5.816A11.154,11.154,0,0,1,4,15a11.082,11.082,0,0,1,.839-4.317A10.741,10.741,0,0,1,7.162,7.19,10.967,10.967,0,0,1,15,4,10.912,10.912,0,0,1,26,15a10.967,10.967,0,0,1-3.19,7.837,10.741,10.741,0,0,1-3.493,2.324A11.082,11.082,0,0,1,15,26Zm0-11Zm0,9.35a9,9,0,0,0,6.6-2.75A9,9,0,0,0,24.35,15,9,9,0,0,0,21.6,8.4,9,9,0,0,0,15,5.65,9,9,0,0,0,8.4,8.4,9,9,0,0,0,5.65,15,9,9,0,0,0,8.4,21.6,9,9,0,0,0,15,24.35Z" transform="translate(-4 -4)" fill="#5b9150"/>
</svg>
