<svg xmlns="http://www.w3.org/2000/svg" width="20.902" height="20.758" viewBox="0 0 20.902 20.758">
  <g id="Grupo_1665" data-name="Grupo 1665" transform="translate(0.1 -0.161)">
    <path id="Trazado_680" data-name="Trazado 680" d="M18.981,50.085a.514.514,0,0,0-.512.515v4.575a1.543,1.543,0,0,1-1.537,1.546H2.561a1.543,1.543,0,0,1-1.537-1.546V41.748A1.543,1.543,0,0,1,2.561,40.2H7.109a.515.515,0,0,0,0-1.03H2.561A2.572,2.572,0,0,0,0,41.748V55.175a2.572,2.572,0,0,0,2.561,2.576H16.933a2.572,2.572,0,0,0,2.561-2.576V50.6A.514.514,0,0,0,18.981,50.085Zm0,0" transform="translate(0 -36.933)" fill="#365cab" stroke="#1a5eab" stroke-width="0.2"/>
    <path id="Trazado_681" data-name="Trazado 681" d="M121.836.931a2.288,2.288,0,0,0-3.235,0L109.531,10a.508.508,0,0,0-.13.224l-1.193,4.306a.508.508,0,0,0,.625.626l4.306-1.193a.508.508,0,0,0,.224-.13l9.069-9.07a2.29,2.29,0,0,0,0-3.235Zm-11.2,9.4,7.423-7.423L120.455,5.3l-7.423,7.423Zm-.478.96,1.912,1.913-2.645.733Zm11.553-7.246-.539.539L118.78,2.189l.539-.539a1.271,1.271,0,0,1,1.8,0l.6.6A1.273,1.273,0,0,1,121.714,4.044Zm0,0" transform="translate(-102.543)" fill="#365cab" stroke="#1a5eab" stroke-width="0.2"/>
  </g>
</svg>
