<svg xmlns="http://www.w3.org/2000/svg" width="17.537" height="22.197" viewBox="0 0 17.537 22.197">
  <g id="Grupo_2363" data-name="Grupo 2363" transform="translate(-1128.875 -2113.002)">
    <path id="Trazado_1604" data-name="Trazado 1604" d="M819.851,350.775h-3.71v-.694A2.055,2.055,0,0,0,814.117,348h-2.7a2.055,2.055,0,0,0-2.024,2.081v.694h-3.71A1.713,1.713,0,0,0,804,352.509v2.428a.684.684,0,0,0,.674.694h.369l.583,12.585a2.047,2.047,0,0,0,2.021,1.982H817.89a2.047,2.047,0,0,0,2.021-1.982l.583-12.585h.369a.684.684,0,0,0,.674-.694v-2.428a1.712,1.712,0,0,0-1.686-1.734Zm-9.106-.694a.685.685,0,0,1,.675-.694h2.7a.685.685,0,0,1,.674.694v.694h-4.047Zm-5.4,2.428a.342.342,0,0,1,.337-.347h14.164a.342.342,0,0,1,.337.347v1.734H805.349Zm13.215,15.64a.682.682,0,0,1-.674.661H807.647a.682.682,0,0,1-.674-.661l-.58-12.519h12.749Zm0,0" transform="translate(324.875 1765.002)" fill="#ff0007"/>
    <path id="Trazado_1605" data-name="Trazado 1605" d="M948.748,515.226a.748.748,0,0,0,.748-.748v-9.729a.748.748,0,0,0-1.5,0v9.729a.748.748,0,0,0,.748.748Zm0,0" transform="translate(188.895 1616.979)" fill="#ff0007"/>
    <path id="Trazado_1606" data-name="Trazado 1606" d="M1008.748,515.226a.748.748,0,0,0,.748-.748v-9.729a.748.748,0,1,0-1.5,0v9.729a.748.748,0,0,0,.748.748Zm0,0" transform="translate(132.237 1616.979)" fill="#ff0007"/>
    <path id="Trazado_1607" data-name="Trazado 1607" d="M888.748,515.226a.748.748,0,0,0,.748-.748v-9.729a.748.748,0,1,0-1.5,0v9.729a.748.748,0,0,0,.748.748Zm0,0" transform="translate(245.553 1616.979)" fill="#ff0007"/>
  </g>
</svg>
