<?xml version="1.0" encoding="UTF-8" ?>
<!DOCTYPE svg PUBLIC "-//W3C//DTD SVG 1.1//EN" "http://www.w3.org/Graphics/SVG/1.1/DTD/svg11.dtd">
<svg width="720pt" height="462pt" viewBox="0 0 720 462" version="1.1" xmlns="http://www.w3.org/2000/svg">
<g id="#006671ff">
<path fill="#006671" opacity="1.00" d=" M 0.00 0.00 L 616.37 0.00 C 617.94 0.88 619.44 1.92 620.69 3.24 C 619.62 8.55 622.02 13.48 623.83 18.33 C 626.41 26.67 629.48 34.86 631.91 43.25 C 635.52 52.12 637.05 61.64 640.39 70.61 C 642.75 81.34 646.76 91.64 648.69 102.47 C 651.01 107.81 651.25 113.69 653.03 119.19 C 654.14 122.63 654.11 126.33 655.37 129.73 C 657.63 135.32 657.71 141.46 659.83 147.09 C 660.94 154.48 663.76 161.50 664.29 168.99 C 664.65 173.11 666.50 176.90 667.01 181.00 C 667.87 189.40 670.29 197.53 671.27 205.91 C 673.43 212.46 674.02 219.33 675.20 226.07 C 677.43 232.62 677.05 239.64 678.93 246.26 C 680.84 253.31 680.05 260.77 682.02 267.80 C 684.11 274.77 682.87 282.24 685.12 289.19 C 687.26 295.64 686.51 302.52 687.81 309.10 C 690.55 319.28 689.40 329.99 691.44 340.28 C 694.02 350.39 692.18 361.00 694.88 371.07 C 697.14 386.93 696.33 403.04 698.10 418.95 C 698.52 425.64 698.47 432.34 698.70 439.04 C 698.63 441.71 699.07 444.90 696.96 446.96 C 695.29 449.02 692.41 448.60 690.07 448.78 C 685.01 448.81 680.02 449.67 675.01 450.19 C 665.80 450.86 656.56 450.21 647.35 450.75 C 639.92 451.55 632.45 451.15 625.00 451.29 C 609.02 451.17 593.00 451.92 577.06 450.55 C 560.01 450.67 543.02 449.58 526.00 448.83 C 505.97 448.41 485.89 449.12 465.93 447.13 C 443.45 444.90 420.75 445.91 398.36 442.70 C 386.58 441.48 374.70 442.04 362.94 440.59 C 354.60 440.10 346.39 438.20 338.02 438.25 C 331.15 438.20 324.48 436.46 317.70 435.65 C 307.34 435.09 296.94 434.49 286.75 432.48 C 282.53 431.66 278.23 431.60 273.95 431.58 C 266.83 431.61 260.19 428.45 253.08 428.37 C 247.41 428.25 241.87 427.10 236.39 425.73 C 230.87 425.21 225.29 424.94 219.95 423.25 C 214.34 421.45 208.25 422.37 202.71 420.30 C 198.23 418.56 193.31 418.78 188.76 417.33 C 182.76 415.16 176.25 415.21 170.25 412.98 C 162.37 411.81 154.82 409.17 146.92 408.09 C 139.92 405.98 132.62 405.19 125.73 402.72 C 120.95 402.19 116.54 400.28 111.96 399.01 C 106.56 398.73 101.74 396.06 96.44 395.30 C 93.13 394.79 90.24 392.83 86.90 392.52 C 81.16 392.08 76.13 388.91 70.39 388.42 C 64.32 386.36 57.87 385.72 51.94 383.24 C 45.83 381.90 40.02 379.52 33.89 378.23 C 28.16 376.18 22.13 375.20 16.49 372.88 C 10.88 371.88 5.75 369.08 0.00 368.76 L 0.00 0.00 Z" />
</g>
</svg>
