<svg xmlns="http://www.w3.org/2000/svg" width="24.517" height="25.146" viewBox="0 0 24.517 25.146">
  <g id="Grupo_2589" data-name="Grupo 2589" transform="translate(-0.5 -1.207)">
    <path id="Trazado_1646" data-name="Trazado 1646" d="M.739,12.639,4.587,8.761V3.337A.821.821,0,0,1,5.4,2.513H7.038a.821.821,0,0,1,.817.824v2.13L11.6,1.689a1.625,1.625,0,0,1,2.311,0l10.864,10.95a.83.83,0,0,1,0,1.166.814.814,0,0,1-1.157,0L12.758,2.854,1.9,13.806a.814.814,0,0,1-1.157,0A.829.829,0,0,1,.739,12.639Z" transform="translate(0)" fill="#007588"/>
    <path id="Trazado_1647" data-name="Trazado 1647" d="M38.223,35.326V47.15H31.418V38.2H25.456V47.15H18.651V35.326l9.786-9.885Z" transform="translate(-15.78 -20.797)" fill="#007588"/>
  </g>
</svg>
