<svg xmlns="http://www.w3.org/2000/svg" width="17.542" height="8.008" viewBox="0 0 17.542 8.008">
  <path id="Trazado_1675" data-name="Trazado 1675" d="M4.312,3.3V11H2.75V6.006H.814V4.829Q2.849,4.873,3.069,3.3Zm3.81,2.959h-1.5a3.171,3.171,0,0,1,.7-2.239,2.6,2.6,0,0,1,2.1-.875,2.749,2.749,0,0,1,1.848.638,2.227,2.227,0,0,1,.792,1.771A2.463,2.463,0,0,1,11.378,7.3a9.323,9.323,0,0,1-1.5,1.111A5.426,5.426,0,0,0,8.463,9.658H12.1V11H6.45a3.188,3.188,0,0,1,.715-2.057A9.238,9.238,0,0,1,8.881,7.557q.9-.616,1.067-.759a1.5,1.5,0,0,0,.55-1.122,1.167,1.167,0,0,0-.324-.863,1.125,1.125,0,0,0-.831-.325,1.029,1.029,0,0,0-.957.583A2.413,2.413,0,0,0,8.122,6.259Zm6.824,1.254v-1.1a2.193,2.193,0,0,0,1.067-.132.829.829,0,0,0,.572-.825.936.936,0,0,0-.319-.748,1.139,1.139,0,0,0-.77-.275,1.084,1.084,0,0,0-.886.379,1.469,1.469,0,0,0-.3,1H12.823a2.793,2.793,0,0,1,.764-1.925,2.534,2.534,0,0,1,1.9-.737,2.921,2.921,0,0,1,1.76.55A1.9,1.9,0,0,1,18.07,5.28a1.707,1.707,0,0,1-.275.979,1.344,1.344,0,0,1-.8.594v.022a1.686,1.686,0,0,1,1,.622,1.794,1.794,0,0,1,.368,1.127,2.286,2.286,0,0,1-.869,1.87,3.032,3.032,0,0,1-1.991.66,2.911,2.911,0,0,1-2.1-.748,2.648,2.648,0,0,1-.759-2.057h1.485a1.706,1.706,0,0,0,.352,1.067,1.2,1.2,0,0,0,1,.451,1.259,1.259,0,0,0,.9-.335,1.144,1.144,0,0,0,.358-.875.976.976,0,0,0-.6-1.012A3.636,3.636,0,0,0,14.946,7.513Z" transform="translate(-0.814 -3.146)" fill="#1a5eab"/>
</svg>
