<svg xmlns="http://www.w3.org/2000/svg" width="18" height="20.78" viewBox="0 0 18 20.78">
  <path id="Trazado_1658" data-name="Trazado 1658" d="M16.172,25.68a8.6,8.6,0,0,1-5.813-2.836A8.915,8.915,0,0,1,9,12.707,8.36,8.36,0,0,1,11.791,9.59L13,10.8a6.441,6.441,0,0,0-2.443,2.541,7.144,7.144,0,0,0-.871,3.44,7,7,0,0,0,1.853,4.858A7.1,7.1,0,0,0,16.172,24Zm1.685,0V24a7.157,7.157,0,0,0,4.633-2.373,7.012,7.012,0,0,0,1.825-4.844,7.239,7.239,0,0,0-7.3-7.3h-.562l1.685,1.685L16.93,12.37,13.2,8.635,16.93,4.9l1.207,1.207L16.452,7.792h.562a8.648,8.648,0,0,1,6.374,2.626A8.687,8.687,0,0,1,26,16.778a8.67,8.67,0,0,1-2.345,6.066A8.549,8.549,0,0,1,17.856,25.68Z" transform="translate(-8 -4.9)" fill="#ca3062"/>
</svg>
