<svg xmlns="http://www.w3.org/2000/svg" width="27.479" height="27" viewBox="0 -4 27.479 27">
  <path id="Trazado_1652" data-name="Trazado 1652" d="M15.739,22.676a5.278,5.278,0,0,0,5.308-5.308,5.278,5.278,0,0,0-5.308-5.308,5.278,5.278,0,0,0-5.308,5.308,5.278,5.278,0,0,0,5.308,5.308Zm0-1.811a3.465,3.465,0,0,1-3.5-3.5,3.465,3.465,0,0,1,3.5-3.5,3.465,3.465,0,0,1,3.5,3.5,3.465,3.465,0,0,1-3.5,3.5Zm0,5.87A13.993,13.993,0,0,1,7.5,24.144,15.789,15.789,0,0,1,2,17.368a15.789,15.789,0,0,1,5.5-6.776A13.993,13.993,0,0,1,15.739,8a13.993,13.993,0,0,1,8.244,2.592,15.789,15.789,0,0,1,5.5,6.776,15.789,15.789,0,0,1-5.5,6.776A13.993,13.993,0,0,1,15.739,26.735Zm0-1.874a12.559,12.559,0,0,0,6.948-2.045,13.275,13.275,0,0,0,4.824-5.449,13.275,13.275,0,0,0-4.824-5.449,12.823,12.823,0,0,0-13.9,0,13.5,13.5,0,0,0-4.856,5.449,13.5,13.5,0,0,0,4.856,5.449A12.559,12.559,0,0,0,15.739,24.862Z" transform="translate(-2 -8)" fill="#007588"/>
</svg>
