<svg xmlns="http://www.w3.org/2000/svg" width="18.671" height="21.965" viewBox="0 0 18.671 21.965">
  <path id="Trazado_1464" data-name="Trazado 1464" d="M10.942,22.621a1.689,1.689,0,0,1-1.647-1.647V5.6a1.58,1.58,0,0,1,.494-1.153,1.58,1.58,0,0,1,1.153-.494H23.023a1.58,1.58,0,0,1,1.153.494A1.58,1.58,0,0,1,24.671,5.6V20.973a1.689,1.689,0,0,1-1.647,1.647Zm0-1.647H23.023V5.6H10.942V20.973ZM7.647,25.915A1.689,1.689,0,0,1,6,24.268V7.712H7.647V24.268H20.662v1.647ZM10.942,5.6h0V20.973h0V5.6Z" transform="translate(-6 -3.95)" fill="#babd56"/>
</svg>
