<svg id="Grupo_1834" data-name="Grupo 1834" xmlns="http://www.w3.org/2000/svg" width="19.667" height="19.919" viewBox="0 0 19.667 19.919">
  <path id="Trazado_202" data-name="Trazado 202" d="M266.194,165.211l2.342-2.306-3.824-3.824a7.867,7.867,0,0,0-6.445-12.307h-.059a7.875,7.875,0,0,0-.057,15.751h.06a7.836,7.836,0,0,0,4.127-1.17l3.867,3.866h0Zm-7.881-5.471h-.04a5.09,5.09,0,0,1,.038-10.18h.038a5.09,5.09,0,0,1-.036,10.18Z" transform="translate(-250.333 -146.774)" fill="#adaaaa"/>
  <path id="Trazado_203" data-name="Trazado 203" d="M337.762,233.253l-.363-.368-2.344,2.306.364.369a.89.89,0,0,0,.652.252,1.961,1.961,0,0,0,1.3-.613C338.029,234.552,338.2,233.7,337.762,233.253Z" transform="translate(-318.337 -215.893)" fill="#adaaaa"/>
</svg>
