<svg xmlns="http://www.w3.org/2000/svg" width="57.055" height="57.055" viewBox="0 0 57.055 57.055">
  <path id="Trazado_1621" data-name="Trazado 1621" d="M32.108,48.44a2.681,2.681,0,1,0-1.925-.785A2.612,2.612,0,0,0,32.108,48.44Zm-2.5-10.411h4.208a11.672,11.672,0,0,1,.464-3.389,8.4,8.4,0,0,1,2.887-3.529,12.435,12.435,0,0,0,3.138-3.638,8.368,8.368,0,0,0,.927-3.923,7.872,7.872,0,0,0-2.459-6.061,9.215,9.215,0,0,0-6.527-2.283,11.034,11.034,0,0,0-6.169,1.747A10,10,0,0,0,22.2,21.768l3.78,1.427a6.664,6.664,0,0,1,2.353-3.1,6.276,6.276,0,0,1,3.71-1.1,5.721,5.721,0,0,1,3.923,1.319,4.312,4.312,0,0,1,1.5,3.387,5.247,5.247,0,0,1-.927,2.961,14.241,14.241,0,0,1-2.71,2.887,14.478,14.478,0,0,0-3.174,3.674A9.716,9.716,0,0,0,29.613,38.029Zm2.21,22.322a28.725,28.725,0,0,1-11.2-2.176,27.858,27.858,0,0,1-9.058-6.025A28.459,28.459,0,0,1,3.3,31.823,28.3,28.3,0,0,1,31.823,3.3a28.443,28.443,0,0,1,20.182,8.273,28.81,28.81,0,0,1,6.1,9.058,27.956,27.956,0,0,1,2.246,11.2A28.138,28.138,0,0,1,58.1,43.092a28.81,28.81,0,0,1-6.1,9.058,27.828,27.828,0,0,1-9.056,6.025A28.542,28.542,0,0,1,31.823,60.351Zm0-29.312Zm0,25.032A23.314,23.314,0,0,0,48.976,48.94a23.4,23.4,0,0,0,7.095-17.116,23.409,23.409,0,0,0-7.095-17.116A23.314,23.314,0,0,0,31.823,7.576,23.241,23.241,0,0,0,14.6,14.707,23.525,23.525,0,0,0,7.576,31.823,23.518,23.518,0,0,0,14.6,48.94,23.241,23.241,0,0,0,31.823,56.071Z" transform="translate(-3.296 -3.296)" fill="#D8691E"/>
</svg>
