<svg id="Grupo_1727" data-name="Grupo 1727" xmlns="http://www.w3.org/2000/svg" width="22" height="22" viewBox="0 0 27.396 27.396">
  <path id="Trazado_1447" data-name="Trazado 1447" d="M723.754,293.352a1.07,1.07,0,0,1,0,1.513l-7.179,7.18a1.07,1.07,0,0,1-1.513,0l-3.418-3.418a1.07,1.07,0,1,1,1.513-1.513l2.661,2.661,6.423-6.423a1.07,1.07,0,0,1,1.513,0ZM731.4,297.7A13.7,13.7,0,1,1,717.7,284a13.691,13.691,0,0,1,13.7,13.7Zm-2.14,0A11.558,11.558,0,1,0,717.7,309.256,11.552,11.552,0,0,0,729.256,297.7Zm0,0" transform="translate(-704 -284)" fill="#fff"/>
</svg>
