<svg id="Grupo_1727" data-name="Grupo 1727" xmlns="http://www.w3.org/2000/svg" width="56.807" height="56.807" viewBox="0 0 56.807 56.807">
  <path id="Trazado_1447" data-name="Trazado 1447" d="M744.959,303.391a2.218,2.218,0,0,1,0,3.138l-14.887,14.887a2.219,2.219,0,0,1-3.138,0l-7.087-7.087a2.219,2.219,0,1,1,3.138-3.138l5.518,5.518,13.318-13.318a2.219,2.219,0,0,1,3.138,0Zm15.848,9.013A28.4,28.4,0,1,1,732.4,284a28.388,28.388,0,0,1,28.4,28.4Zm-4.438,0A23.966,23.966,0,1,0,732.4,336.369,23.952,23.952,0,0,0,756.369,312.4Zm0,0" transform="translate(-704 -284)" fill="#5b9150"/>
</svg>
