<svg id="ico_pop_up_6" data-name="ico pop up 6" xmlns="http://www.w3.org/2000/svg" width="63.038" height="54.208" viewBox="0 0 63.038 54.208">
  <path id="Trazado_1472" data-name="Trazado 1472" d="M62.226,81.479,36.369,38.6a5.663,5.663,0,0,0-9.7,0L.813,81.479a5.663,5.663,0,0,0,4.85,8.587H57.376a5.663,5.663,0,0,0,4.85-8.587Zm-3.492,3.691a1.562,1.562,0,0,1-1.358.792H5.662A1.559,1.559,0,0,1,4.327,83.6L30.184,40.716a1.559,1.559,0,0,1,2.67,0L58.711,83.6A1.561,1.561,0,0,1,58.734,85.169Z" transform="translate(-0.001 -35.858)" fill="#ff0007"/>
  <path id="Trazado_1473" data-name="Trazado 1473" d="M236.359,192.577c.914,0,2.208-.495,2.208-1.675,0-4.531.533-11.042.533-15.573,0-1.485-1.256-2.323-2.742-2.323-1.561,0-2.78.838-2.78,2.323,0,4.531.533,11.042.533,15.573C234.112,192.082,235.14,192.577,236.359,192.577Z" transform="translate(-204.821 -156.12)" fill="#ff0007"/>
  <path id="Trazado_1474" data-name="Trazado 1474" d="M235.585,353.306a2.932,2.932,0,0,0,0,5.864,2.932,2.932,0,0,0,0-5.864Z" transform="translate(-204.009 -314.222)" fill="#ff0007"/>
</svg>
